<svg width="38" height="59" viewBox="0 0 38 59" fill="none" xmlns="http://www.w3.org/2000/svg">
<rect width="38" height="59" fill="#1E1E1E"/>
<g id="2">
<rect width="609" height="1724" transform="translate(164.464 -104.88) rotate(90)" fill="black"/>
<path id="5" d="M4.47998 -8.58307e-06H35.2V1.91999H6.31998L3.99998 26.56H4.31998C5.91998 24.4 7.99998 22.72 10.72 21.52C13.2 20.4 15.84 19.84 18.56 19.84C24 19.84 28.4 21.44 31.76 24.72C35.28 28.16 37.04 32.96 37.04 39.12C37.04 44.56 35.28 49.12 31.76 52.8C28.24 56.4 23.76 58.24 18.24 58.24C13.44 58.24 9.43998 56.88 6.15998 54.32C2.47998 51.44 0.399981 47.44 -1.90735e-05 42.4H1.99998C2.31998 46.8 4.15998 50.32 7.43998 52.88C10.4 55.2 14 56.4 18.24 56.4C23.2 56.4 27.2 54.72 30.4 51.44C33.52 48.08 35.12 44 35.12 39.12C35.12 33.52 33.52 29.12 30.4 26.08C27.36 23.12 23.44 21.68 18.56 21.68C15.44 21.68 12.56 22.48 9.83998 24.08C7.11998 25.68 5.03998 27.84 3.75998 30.56H1.75998L4.47998 -8.58307e-06Z" fill="url(#paint0_linear_270_2)"/>
</g>
<defs>
<linearGradient id="paint0_linear_270_2" x1="18.4644" y1="11.12" x2="18.4644" y2="46.12" gradientUnits="userSpaceOnUse">
<stop stop-color="white" stop-opacity="0.8"/>
<stop offset="0.240385" stop-color="white" stop-opacity="0.55"/>
<stop offset="1" stop-color="white" stop-opacity="0.02"/>
</linearGradient>
</defs>
</svg>
