<svg width="252" height="9" viewBox="0 0 252 9" fill="none" xmlns="http://www.w3.org/2000/svg">
<rect width="252" height="9" fill="#1E1E1E"/>
<g id="2" clip-path="url(#clip0_270_2)">
<rect width="609" height="1724" transform="translate(1454.48 -298.521) rotate(90)" fill="black"/>
<g id="Group 2147231023">
<g id="Group 2147231005">
<g id="Group 2147230993">
<g id="Group 2147230980">
<path id="&#231;&#172;&#172;&#228;&#184;&#128;&#229;&#143;&#145;&#230;&#152;&#142;&#228;&#186;&#186;&#239;&#188;&#140;&#227;&#128;&#138;&#228;&#184;&#128;&#231;&#167;&#141;&#228;&#190;&#191;&#230;&#144;&#186;&#229;&#188;&#143;&#233;&#156;&#178;&#232;&#144;&#165;&#231;&#129;&#175;&#227;&#128;&#139;&#229;&#174;&#158;&#231;&#148;&#168;&#230;&#150;&#176;&#229;&#158;&#139;&#228;&#184;&#147;&#229;&#136;&#169;&#239;&#188;&#140;&#231;&#148;&#179;&#232;&#175;&#183;&#228;&#184;&#173;" d="M3.798 3.033H0.773997V2.574H7.209V4.482H4.284V5.481H7.515C7.515 6.516 7.452 7.164 7.326 7.425C7.191 7.722 6.903 7.875 6.453 7.884C6.075 7.884 5.697 7.875 5.337 7.875L5.22 7.407C5.634 7.425 6.021 7.434 6.372 7.434C6.66 7.434 6.849 7.317 6.93 7.092C6.984 6.912 7.02 6.516 7.02 5.913H4.284V8.37H3.798V5.913H3.681C3.105 6.795 1.989 7.542 0.332997 8.172L0.0629969 7.731C1.593 7.209 2.628 6.597 3.159 5.913H0.620997L1.017 4.032H3.798V3.033ZM3.798 4.482H1.431L1.188 5.481H3.798V4.482ZM4.284 4.032H6.714V3.033H4.284V4.032ZM1.215 1.251C0.980997 1.593 0.719997 1.917 0.422997 2.214L-3.15532e-06 1.944C0.593997 1.386 1.026 0.765003 1.305 0.0630034L1.782 0.162004C1.692 0.387003 1.584 0.603003 1.476 0.810003H3.996V1.251H2.349C2.61 1.557 2.817 1.845 2.97 2.115L2.529 2.268C2.322 1.926 2.079 1.584 1.809 1.251H1.215ZM4.986 1.233C4.779 1.593 4.545 1.926 4.275 2.223L3.852 1.953C4.374 1.395 4.761 0.765003 5.013 0.0630034L5.472 0.162004C5.391 0.378004 5.31 0.594003 5.22 0.792004H7.974V1.233H6.201C6.462 1.557 6.669 1.854 6.822 2.124L6.381 2.286C6.183 1.926 5.949 1.575 5.679 1.233H4.986ZM9.946 3.933H18.001V4.419H9.946V3.933ZM20.612 2.808L21.323 0.414004L21.809 0.486004L21.242 2.349H23.006C23.195 1.629 23.348 0.873004 23.465 0.0630034L23.96 0.117004C23.834 0.909004 23.69 1.656 23.51 2.349H27.785V2.808H23.384C23.258 3.222 23.132 3.609 22.988 3.987H26.723V4.41C26.471 5.211 25.949 5.94 25.157 6.597C25.913 7.074 26.84 7.506 27.956 7.893L27.713 8.343C26.507 7.902 25.526 7.425 24.761 6.903C24.005 7.443 23.06 7.929 21.926 8.37L21.674 7.92C22.754 7.524 23.645 7.083 24.347 6.606C23.555 6.003 23.015 5.355 22.709 4.653C22.043 6.138 21.188 7.317 20.126 8.19L19.874 7.74C21.242 6.552 22.25 4.914 22.88 2.808H20.612ZM23.096 4.437C23.402 5.121 23.951 5.751 24.743 6.318C25.472 5.742 25.967 5.112 26.228 4.437H23.096ZM25.472 0.189003C26.12 0.693004 26.669 1.197 27.11 1.71L26.759 2.061C26.363 1.566 25.823 1.044 25.139 0.504004L25.472 0.189003ZM32.871 0.729003V6.786H30.819V7.533H30.333V0.729003H32.871ZM30.819 6.309H32.394V3.951H30.819V6.309ZM30.819 3.474H32.394V1.197H30.819V3.474ZM34.446 3.159V4.626C34.446 4.707 34.437 4.788 34.437 4.86H37.02V3.159H34.446ZM37.02 2.7V0.954004H34.446V2.7H37.02ZM34.41 5.328C34.302 6.552 33.969 7.569 33.393 8.379L33.006 8.028C33.618 7.146 33.933 6.021 33.951 4.662V0.477003H37.515V7.533C37.515 8.019 37.263 8.271 36.777 8.271H35.58L35.445 7.803C35.868 7.812 36.255 7.821 36.615 7.821C36.885 7.821 37.02 7.668 37.02 7.362V5.328H34.41ZM44.23 0.162004C44.23 0.927004 44.203 1.584 44.167 2.133C44.671 4.635 45.994 6.543 48.118 7.857L47.794 8.271C45.859 7.02 44.59 5.328 43.996 3.204C43.501 5.247 42.214 6.939 40.126 8.28L39.829 7.848C42.34 6.282 43.636 4.212 43.726 1.62C43.726 0.990004 43.735 0.504004 43.735 0.162004H44.23ZM51.116 6.579C51.296 6.579 51.431 6.651 51.539 6.795C51.629 6.93 51.683 7.119 51.683 7.353C51.683 7.713 51.575 8.019 51.368 8.28C51.161 8.532 50.891 8.703 50.549 8.793V8.433C50.783 8.361 50.963 8.235 51.089 8.055C51.215 7.893 51.269 7.704 51.269 7.488C51.233 7.497 51.179 7.506 51.089 7.506C50.963 7.506 50.855 7.461 50.765 7.371C50.675 7.281 50.63 7.173 50.63 7.047C50.63 6.903 50.666 6.786 50.756 6.705C50.846 6.615 50.963 6.579 51.116 6.579ZM60.111 0.0360037L60.561 0.234003L58.779 4.239L60.543 8.244L60.111 8.442L58.257 4.239L60.111 0.0360037ZM61.506 0.0360037L61.938 0.234003L60.165 4.239L61.938 8.244L61.506 8.442L59.652 4.239L61.506 0.0360037ZM63.946 3.933H72.001V4.419H63.946V3.933ZM79.427 0.180003H79.904V1.818H81.731V5.796H81.254V5.301H79.904V8.361H79.427V5.301H78.104V5.796H77.636V1.818H79.427V0.180003ZM78.104 4.851H79.427V2.286H78.104V4.851ZM79.904 4.851H81.254V2.286H79.904V4.851ZM74.081 1.35L73.991 0.891003C75.107 0.765003 76.088 0.549004 76.934 0.234003L77.096 0.684003C76.718 0.819004 76.322 0.936003 75.89 1.044V2.664H77.105V3.141H75.89V3.654C76.349 4.104 76.817 4.626 77.294 5.202L77.015 5.607C76.583 4.968 76.205 4.464 75.89 4.095V8.415H75.404V4.041C75.071 4.995 74.603 5.859 74.009 6.624L73.811 6.111C74.549 5.238 75.062 4.248 75.368 3.141H73.964V2.664H75.404V1.143C74.99 1.224 74.549 1.296 74.081 1.35ZM86.592 0.576004H91.947V1.044H89.355V1.944H91.515V5.31H89.337C89.283 5.994 89.094 6.561 88.752 7.011C89.706 7.551 90.831 7.848 92.109 7.911L91.992 8.352C90.624 8.28 89.445 7.947 88.437 7.344C87.951 7.767 87.24 8.1 86.313 8.352L86.052 7.956C86.943 7.731 87.6 7.443 88.032 7.083C87.555 6.759 87.123 6.372 86.745 5.922L87.114 5.67C87.474 6.093 87.888 6.453 88.347 6.759C88.635 6.363 88.806 5.877 88.86 5.31H86.709V1.944H88.869V1.044H86.592V0.576004ZM91.056 4.896V3.825H89.355V4.896H91.056ZM88.869 4.896V3.825H87.168V4.896H88.869ZM87.168 3.411H88.869V2.358H87.168V3.411ZM89.355 2.358V3.411H91.056V2.358H89.355ZM84.963 3.159C84.675 3.627 84.351 4.068 84 4.482L83.847 3.96C84.729 2.844 85.359 1.575 85.755 0.162004L86.196 0.360004C85.989 1.044 85.737 1.683 85.44 2.295V8.343H84.963V3.159ZM98.284 5.562H96.988V5.112H100.912V5.337C100.84 5.634 100.75 5.895 100.651 6.129H101.83V6.381C101.776 7.227 101.659 7.758 101.488 7.956C101.344 8.118 101.119 8.208 100.813 8.217C100.489 8.217 100.075 8.226 99.589 8.226L99.445 7.776C99.931 7.803 100.291 7.821 100.543 7.821C100.804 7.812 100.993 7.758 101.101 7.65C101.227 7.524 101.317 7.146 101.371 6.534H100.093C100.219 6.228 100.327 5.904 100.417 5.562H98.761C98.527 6.993 97.834 7.902 96.673 8.28L96.466 7.83C97.474 7.506 98.086 6.75 98.284 5.562ZM97.42 1.989C97.168 2.376 96.889 2.754 96.565 3.114L96.421 2.655C97.069 1.872 97.528 1.017 97.798 0.0900036L98.239 0.180003C98.158 0.450004 98.068 0.702004 97.96 0.954004H99.634C99.508 0.666004 99.373 0.396003 99.229 0.162004L99.697 0.0900036C99.832 0.342004 99.967 0.630004 100.093 0.954004H101.857V1.35H100.057V2.043H101.632V2.394H100.057V3.051H101.659V3.402H100.057V4.077H101.893V4.473H97.42V1.989ZM99.607 4.077V3.402H97.861V4.077H99.607ZM99.607 3.051V2.394H97.861V3.051H99.607ZM99.607 2.043V1.35H97.861V2.043H99.607ZM96.673 3.735V4.212C96.358 4.392 96.043 4.554 95.719 4.707V7.542C95.719 7.992 95.503 8.217 95.071 8.217H94.297L94.189 7.758C94.441 7.776 94.675 7.785 94.9 7.785C95.125 7.785 95.242 7.659 95.242 7.425V4.923C94.846 5.085 94.459 5.22 94.072 5.346L93.955 4.869C94.396 4.743 94.828 4.599 95.242 4.437V2.277H94.144V1.791H95.242V0.162004H95.719V1.791H96.493V2.277H95.719V4.23C96.043 4.077 96.367 3.915 96.673 3.735ZM104.072 1.809H108.554C108.518 1.278 108.509 0.729003 108.509 0.162004H109.013C109.013 0.738004 109.022 1.287 109.058 1.809H111.884V2.295H109.085C109.193 3.915 109.445 5.247 109.832 6.291C110.219 7.281 110.579 7.776 110.903 7.794C111.119 7.749 111.335 7.209 111.533 6.174L111.974 6.399C111.704 7.677 111.362 8.316 110.93 8.325C110.192 8.289 109.544 7.299 109.004 5.346C108.788 4.464 108.653 3.447 108.581 2.295H104.072V1.809ZM104.225 3.924H107.987V4.392H106.349V6.921C107.033 6.795 107.699 6.642 108.347 6.48V6.966C107.06 7.281 105.665 7.542 104.171 7.749L104.054 7.281C104.666 7.209 105.269 7.119 105.863 7.011V4.392H104.225V3.924ZM110.363 0.225003C110.678 0.594003 110.975 0.990004 111.245 1.422L110.831 1.629C110.552 1.179 110.264 0.783004 109.958 0.423004L110.363 0.225003ZM114.531 3.852H117.195V5.562H116.286V6.291H117.321V6.669H116.286V7.56C116.718 7.479 117.132 7.398 117.528 7.308V7.713C116.574 7.929 115.458 8.136 114.171 8.334L114.054 7.911L114.585 7.839V5.994H114.99V7.776L115.854 7.641V5.562H114.531V3.852ZM116.781 5.193V4.221H114.945V5.193H116.781ZM121.353 6.426V8.388H120.921V8.064H118.653V8.388H118.221V6.426H121.353ZM118.653 7.686H120.921V6.795H118.653V7.686ZM119.121 3.474L119.499 3.564C119.427 3.726 119.337 3.87 119.229 4.014H121.425V4.302C121.128 4.734 120.705 5.112 120.165 5.454C120.723 5.697 121.389 5.886 122.163 6.021L121.911 6.381C121.056 6.219 120.336 5.985 119.742 5.697C119.148 6.003 118.437 6.264 117.618 6.48L117.348 6.129C118.113 5.94 118.77 5.715 119.328 5.463C118.986 5.247 118.698 5.013 118.464 4.761C118.239 4.923 117.996 5.076 117.726 5.22L117.456 4.887C118.275 4.491 118.833 4.023 119.121 3.474ZM118.761 4.527C119.022 4.797 119.346 5.04 119.742 5.256C120.228 4.986 120.624 4.689 120.912 4.365H118.932C118.869 4.419 118.815 4.473 118.761 4.527ZM114.585 0.342004H121.362V0.738004H118.212V1.341H121.668V2.763H121.2V1.719H118.212V3.438H117.744V1.719H114.756V2.763H114.288V1.341H117.744V0.738004H114.585V0.342004ZM115.341 2.241H117.177V2.529H115.341V2.241ZM115.332 2.97H117.168V3.258H115.332V2.97ZM118.779 2.241H120.606V2.529H118.779V2.241ZM118.779 2.97H120.624V3.258H118.779V2.97ZM125.827 3.456H130.165V5.202H125.827V3.456ZM129.706 4.815V3.843H126.286V4.815H129.706ZM131.029 5.904V8.361H130.552V7.983H125.494V8.361H125.017V5.904H131.029ZM125.494 7.56H130.552V6.336H125.494V7.56ZM124.135 0.810003H126.214V0.162004H126.7V0.810003H129.256V0.162004H129.742V0.810003H131.821V1.251H129.742V1.836H129.256V1.251H126.7V1.836H126.214V1.251H124.135V0.810003ZM131.533 2.277V3.888H131.056V2.709H124.9V3.933H124.423V2.277H131.533ZM134.369 1.737L134.792 1.773C134.765 2.655 134.621 3.501 134.351 4.293L133.937 4.176C134.189 3.402 134.333 2.583 134.369 1.737ZM137.168 1.431L137.447 1.8C137.06 2.331 136.547 2.853 135.917 3.366V3.546C135.908 4.059 135.872 4.536 135.818 4.986C136.331 5.544 136.853 6.165 137.375 6.867L137.096 7.29C136.574 6.516 136.124 5.904 135.746 5.463C135.512 6.696 135.044 7.659 134.351 8.343L133.982 8.019C134.936 7.083 135.431 5.598 135.449 3.546V0.234003H135.917V2.853C136.421 2.403 136.835 1.935 137.168 1.431ZM137.483 0.747004H142.046V1.224H140.345V7.542C140.345 8.028 140.102 8.28 139.625 8.28H138.383L138.275 7.812C138.689 7.83 139.076 7.848 139.445 7.848C139.724 7.848 139.868 7.704 139.868 7.425V1.224H137.483V0.747004ZM144.45 0.0360037L146.304 4.239L144.45 8.442L144.018 8.244L145.791 4.239L144.018 0.234003L144.45 0.0360037ZM145.845 0.0360037L147.699 4.239L145.845 8.442L145.413 8.244L147.177 4.239L145.395 0.234003L145.845 0.0360037ZM158.041 6.633C157.312 7.407 156.142 8.001 154.54 8.415L154.072 7.686C155.746 7.245 156.889 6.687 157.492 6.003L157.645 5.796H154.153V4.986H158.086C158.302 4.446 158.428 3.843 158.464 3.177V2.079H159.292V3.177C159.265 3.843 159.166 4.446 158.986 4.986H161.812V5.796H158.635C158.59 5.868 158.545 5.94 158.509 6.012C159.751 6.498 160.894 7.074 161.938 7.722L161.47 8.46C160.354 7.704 159.211 7.101 158.041 6.633ZM155.44 3.276C156.079 3.537 156.664 3.852 157.195 4.221L156.754 4.896C156.196 4.473 155.611 4.149 155.017 3.915L155.44 3.276ZM156.322 2.016C156.961 2.268 157.546 2.583 158.068 2.952L157.627 3.627C157.069 3.213 156.493 2.88 155.899 2.646L156.322 2.016ZM161.731 0.891003V2.736H160.903V1.674H155.035V2.736H154.207V0.891003H157.582C157.483 0.639003 157.384 0.405004 157.276 0.189003L158.149 0.0450036C158.257 0.297004 158.356 0.576004 158.446 0.891003H161.731ZM165.512 3.366V4.743H167.582V3.366H165.512ZM165.467 5.535C165.359 6.669 165.026 7.605 164.468 8.343L163.811 7.758C164.351 6.984 164.63 6.003 164.648 4.815V0.405004H171.551V7.182C171.551 7.857 171.2 8.199 170.516 8.199H169.481L169.256 7.362C169.607 7.389 169.931 7.407 170.237 7.407C170.525 7.407 170.678 7.227 170.678 6.876V5.535H168.446V8.1H167.582V5.535H165.467ZM170.678 4.743V3.366H168.446V4.743H170.678ZM170.678 2.583V1.233H168.446V2.583H170.678ZM167.582 1.233H165.512V2.583H167.582V1.233ZM181.515 0.171004L181.929 0.927004C181.155 1.197 180.3 1.359 179.364 1.422V2.88H182.145V3.699H181.281V8.415H180.444V3.699H179.364V4.608C179.319 6.192 178.968 7.452 178.311 8.397L177.708 7.749C178.221 6.993 178.5 5.949 178.536 4.608V0.720003C179.643 0.702004 180.633 0.513003 181.515 0.171004ZM174 0.810003H175.602C175.494 0.576004 175.368 0.351003 175.233 0.144003L176.115 3.63588e-06C176.223 0.243004 176.34 0.513003 176.448 0.810003H178.113V1.602H174V0.810003ZM173.91 2.853H174.864C174.747 2.538 174.612 2.241 174.459 1.971L175.206 1.692C175.35 2.016 175.494 2.403 175.62 2.853H176.475C176.619 2.475 176.745 2.088 176.853 1.683L177.618 1.953C177.51 2.286 177.384 2.583 177.249 2.853H178.167V3.636H176.502V4.446H178.014V5.22H176.502V7.632C176.502 8.172 176.205 8.442 175.611 8.442H175.143L174.954 7.65C175.089 7.686 175.215 7.704 175.332 7.704C175.548 7.704 175.656 7.614 175.656 7.434V5.22H174.054V4.446H175.656V3.636H173.91V2.853ZM174.594 5.616L175.368 5.778C175.152 6.687 174.855 7.479 174.459 8.154L173.757 7.704C174.153 7.056 174.432 6.354 174.594 5.616ZM177.411 5.553C177.645 6.129 177.834 6.651 177.969 7.119L177.249 7.389C177.105 6.831 176.925 6.282 176.709 5.742L177.411 5.553ZM184.279 0.441003H188.581V1.197H187.735V2.358H188.779V3.15H187.735V5.058H186.907V3.15H185.899C185.791 4.041 185.467 4.716 184.909 5.166L184.261 4.599C184.693 4.266 184.963 3.78 185.062 3.15H184.045V2.358H185.116V1.197H184.279V0.441003ZM185.944 1.197V2.358H186.907V1.197H185.944ZM189.175 0.711004H189.994V3.798H189.175V0.711004ZM184.504 5.814H187.591V5.157H188.437V5.814H191.461V6.597H188.437V7.434H191.956V8.217H184V7.434H187.591V6.597H184.504V5.814ZM190.813 5.157H189.607L189.418 4.365C189.805 4.401 190.174 4.419 190.525 4.419C190.705 4.419 190.804 4.275 190.804 3.996V0.216004H191.623V4.194C191.623 4.833 191.353 5.157 190.813 5.157ZM193.91 2.763H196.439C196.511 2.457 196.592 2.16 196.664 1.854H194.522V1.053H196.844C196.916 0.711004 196.979 0.360004 197.051 0.0180034L197.933 0.0900036C197.87 0.423004 197.807 0.747004 197.753 1.053H201.515V1.854H197.582C197.51 2.169 197.438 2.475 197.366 2.763H202.046V3.582H197.141C197.033 3.942 196.934 4.275 196.826 4.59H200.993V5.328C200.579 5.94 199.94 6.552 199.076 7.173C199.562 7.353 200.03 7.542 200.48 7.74L200.012 8.478C198.671 7.848 197.294 7.344 195.89 6.984L196.34 6.318C196.97 6.48 197.573 6.651 198.149 6.849C198.914 6.363 199.517 5.877 199.958 5.373H195.602C195.818 4.797 196.016 4.203 196.205 3.582H193.91V2.763ZM203.973 2.457H205.665V1.458C205.215 1.539 204.756 1.593 204.288 1.629L204.018 0.837004C205.512 0.711004 206.718 0.468004 207.636 0.0990034L208.05 0.810003C207.555 0.999004 207.051 1.161 206.529 1.287V2.457H208.14V3.276H206.529V3.564C207.087 4.014 207.645 4.536 208.221 5.112L207.717 5.877C207.249 5.283 206.853 4.806 206.529 4.455V8.406H205.665V4.716C205.26 5.481 204.747 6.183 204.135 6.831L203.748 5.832C204.612 5.094 205.251 4.248 205.665 3.303V3.276H203.973V2.457ZM208.761 0.945004H209.607V6.453H208.761V0.945004ZM210.804 8.325H209.463L209.283 7.497C209.706 7.524 210.111 7.542 210.507 7.542C210.732 7.542 210.849 7.407 210.849 7.146V0.126004H211.713V7.362C211.713 8.001 211.407 8.325 210.804 8.325ZM215.116 6.579C215.296 6.579 215.431 6.651 215.539 6.795C215.629 6.93 215.683 7.119 215.683 7.353C215.683 7.713 215.575 8.019 215.368 8.28C215.161 8.532 214.891 8.703 214.549 8.793V8.433C214.783 8.361 214.963 8.235 215.089 8.055C215.215 7.893 215.269 7.704 215.269 7.488C215.233 7.497 215.179 7.506 215.089 7.506C214.963 7.506 214.855 7.461 214.765 7.371C214.675 7.281 214.63 7.173 214.63 7.047C214.63 6.903 214.666 6.786 214.756 6.705C214.846 6.615 214.963 6.579 215.116 6.579ZM227.753 0.162004H228.239V1.575H231.101V6.516H230.624V5.913H228.239V8.334H227.753V5.913H225.332V6.579H224.855V1.575H227.753V0.162004ZM225.332 5.445H227.753V3.951H225.332V5.445ZM228.239 5.445H230.624V3.951H228.239V5.445ZM225.332 3.51H227.753V2.034H225.332V3.51ZM228.239 3.51H230.624V2.034H228.239V3.51ZM239.076 0.144003H239.553V0.783004H241.83V1.197H239.553V1.908H241.497V2.313H239.553V3.042H242.064V3.465H236.592V3.042H239.076V2.313H237.195V1.908H239.076V1.197H236.835V0.783004H239.076V0.144003ZM237.78 5.733V6.507H240.876V5.733H237.78ZM240.876 5.346V4.563H237.78V5.346H240.876ZM237.78 6.903V8.352H237.321V4.149H241.344V7.65C241.344 8.082 241.11 8.307 240.651 8.307H239.895L239.769 7.866L240.507 7.893C240.75 7.893 240.876 7.776 240.876 7.551V6.903H237.78ZM234.864 0.261003C235.485 0.729003 236.007 1.188 236.439 1.656L236.106 1.998C235.71 1.557 235.188 1.089 234.522 0.594003L234.864 0.261003ZM233.874 2.952H235.692V7.056C235.998 6.786 236.313 6.471 236.655 6.111L236.781 6.633C236.295 7.146 235.773 7.605 235.224 8.01L235.035 7.569C235.152 7.461 235.215 7.344 235.215 7.218V3.429H233.874V2.952ZM247.726 0.108003H248.23V1.773H251.488V5.913H250.993V5.31H248.23V8.424H247.726V5.31H244.972V5.913H244.477V1.773H247.726V0.108003ZM244.972 4.833H247.726V2.259H244.972V4.833ZM248.23 4.833H250.993V2.259H248.23V4.833Z" fill="white"/>
</g>
</g>
</g>
</g>
</g>
<defs>
<clipPath id="clip0_270_2">
<rect width="609" height="1724" fill="white" transform="translate(1454.48 -298.521) rotate(90)"/>
</clipPath>
</defs>
</svg>
