<svg width="50" height="33" viewBox="0 0 50 33" fill="none" xmlns="http://www.w3.org/2000/svg">
<rect width="50" height="33" fill="#1E1E1E"/>
<g id="2" clip-path="url(#clip0_270_2)">
<rect width="609" height="1724" transform="translate(410 -535) rotate(90)" fill="black"/>
<g id="Group 2147231035">
<g id="Group 2147231032">
<path id="UI/UX DESIGN" d="M5.00669 2.00946H5.34762V4.45744C5.34762 4.8822 5.43704 5.20637 5.62707 5.42434C5.82827 5.65348 6.13567 5.77085 6.56043 5.77085C6.9852 5.77085 7.29259 5.65348 7.49379 5.42434C7.67823 5.20637 7.77324 4.8822 7.77324 4.45744V2.00946H8.11417V4.45744C8.11417 4.97722 7.98562 5.37403 7.73971 5.6479C7.47703 5.93293 7.0858 6.07825 6.56043 6.07825C6.03507 6.07825 5.64384 5.93293 5.38674 5.65348C5.12965 5.37403 5.00669 4.97722 5.00669 4.45744V2.00946ZM9.48129 2.00946H9.82222V6H9.48129V2.00946ZM13.0251 1.41703H13.3325L11.3261 6.5589H11.0187L13.0251 1.41703ZM14.4808 2.00946H14.8218V4.45744C14.8218 4.8822 14.9112 5.20637 15.1012 5.42434C15.3024 5.65348 15.6098 5.77085 16.0346 5.77085C16.4593 5.77085 16.7667 5.65348 16.9679 5.42434C17.1524 5.20637 17.2474 4.8822 17.2474 4.45744V2.00946H17.5883V4.45744C17.5883 4.97722 17.4598 5.37403 17.2138 5.6479C16.9512 5.93293 16.5599 6.07825 16.0346 6.07825C15.5092 6.07825 15.118 5.93293 14.8609 5.65348C14.6038 5.37403 14.4808 4.97722 14.4808 4.45744V2.00946ZM18.6425 2.00946H19.0672L20.2297 3.64704L21.3978 2.00946H21.8226L20.4365 3.92649L21.94 6H21.5096L20.2297 4.19476L18.9498 6H18.5251L20.0229 3.92649L18.6425 2.00946ZM27.5988 2.00946H29.0184C29.6388 2.00946 30.1082 2.1939 30.4212 2.56836C30.7063 2.9037 30.8516 3.38435 30.8516 4.00473C30.8516 4.61393 30.6895 5.09459 30.3709 5.44669C30.0356 5.81557 29.5605 6 28.9457 6H27.5988V2.00946ZM27.9397 2.31127V5.6982H28.8954C29.4264 5.6982 29.8344 5.54729 30.1138 5.24549C30.3821 4.95486 30.5162 4.54128 30.5162 4.00473C30.5162 3.44583 30.3989 3.03225 30.1641 2.75839C29.907 2.45658 29.5046 2.31127 28.9681 2.31127H27.9397ZM32.0012 2.00946H34.8013V2.31127H32.3422V3.78117H34.6672V4.08857H32.3422V5.6982H34.8963V6H32.0012V2.00946ZM37.3457 1.93122C37.7817 1.93122 38.1282 2.03741 38.3853 2.24979C38.648 2.46217 38.7989 2.77515 38.8324 3.18874H38.4915C38.4468 2.87576 38.3294 2.64102 38.1394 2.47894C37.9493 2.31686 37.6811 2.23861 37.3345 2.23861C37.0104 2.23861 36.7589 2.2945 36.5744 2.40628C36.3621 2.52924 36.2615 2.71926 36.2615 2.97077C36.2615 3.19433 36.3844 3.36759 36.6359 3.50172C36.7533 3.55761 37.0104 3.64704 37.4016 3.75882C37.9102 3.90413 38.2511 4.02709 38.43 4.13887C38.7597 4.33448 38.9274 4.61393 38.9274 4.97722C38.9274 5.31815 38.7821 5.59201 38.4971 5.79321C38.2232 5.98324 37.8599 6.07825 37.4072 6.07825C36.9489 6.07825 36.5856 5.97206 36.3229 5.76526C36.0211 5.52494 35.8535 5.16165 35.8199 4.681H36.1553C36.1944 5.05546 36.3229 5.33491 36.5465 5.51935C36.7477 5.68143 37.0327 5.76526 37.4016 5.76526C37.7537 5.76526 38.0388 5.69261 38.2567 5.55847C38.4691 5.41875 38.5809 5.22872 38.5809 4.99398C38.5809 4.72012 38.4412 4.50774 38.1729 4.35684C38.0388 4.27859 37.7481 4.1724 37.2954 4.04944C36.8204 3.91531 36.513 3.80912 36.3788 3.73087C36.0714 3.55761 35.9205 3.30611 35.9205 2.98195C35.9205 2.63543 36.0603 2.37275 36.3509 2.18831C36.608 2.01505 36.9433 1.93122 37.3457 1.93122ZM40.0705 2.00946H40.4115V6H40.0705V2.00946ZM43.4635 1.93122C43.9553 1.93122 44.3465 2.05417 44.6427 2.30568C44.9166 2.54042 45.0899 2.87576 45.1625 3.30052H44.816C44.7545 2.97636 44.6148 2.71926 44.3912 2.53483C44.1565 2.33921 43.8435 2.2442 43.4635 2.2442C42.994 2.2442 42.6251 2.41187 42.3512 2.74721C42.083 3.07137 41.9488 3.49613 41.9488 4.02709C41.9488 4.54686 42.083 4.96045 42.3512 5.26784C42.6363 5.60318 43.0443 5.77085 43.5808 5.77085C43.8156 5.77085 44.0391 5.73732 44.2627 5.67025C44.4751 5.60318 44.6595 5.52494 44.8048 5.42434V4.28977H43.4411V3.98796H45.1457V5.58642C44.9613 5.73173 44.7322 5.85469 44.4583 5.94411C44.1677 6.03354 43.8659 6.07825 43.5529 6.07825C42.9269 6.07825 42.4351 5.87146 42.0886 5.46905C41.7644 5.09459 41.6079 4.61393 41.6079 4.02709C41.6079 3.43465 41.7644 2.94841 42.083 2.56277C42.4239 2.13801 42.8822 1.93122 43.4635 1.93122ZM46.4291 2.00946H46.8148L49.2292 5.46905H49.246V2.00946H49.5925V6H49.2124L46.7868 2.51247H46.77V6H46.4291V2.00946Z" fill="white"/>
<path id="visual design" d="M0.464321 14.0095H0.844373L2.18014 17.6367H2.19691L3.53268 14.0095H3.91273L2.40929 18H1.97335L0.464321 14.0095ZM4.89871 14.0095H5.23964V18H4.89871V14.0095ZM7.90598 13.9312C8.34193 13.9312 8.68844 14.0374 8.94554 14.2498C9.20822 14.4622 9.35912 14.7752 9.39266 15.1887H9.05173C9.00702 14.8758 8.88965 14.641 8.69962 14.4789C8.5096 14.3169 8.24132 14.2386 7.89481 14.2386C7.57064 14.2386 7.31914 14.2945 7.1347 14.4063C6.92232 14.5292 6.82172 14.7193 6.82172 14.9708C6.82172 15.1943 6.94468 15.3676 7.19618 15.5017C7.31355 15.5576 7.57064 15.647 7.96187 15.7588C8.47047 15.9041 8.8114 16.0271 8.99025 16.1389C9.32 16.3345 9.48767 16.6139 9.48767 16.9772C9.48767 17.3181 9.34236 17.592 9.05732 17.7932C8.78346 17.9832 8.42017 18.0782 7.96746 18.0782C7.50917 18.0782 7.14588 17.9721 6.8832 17.7653C6.58139 17.5249 6.41372 17.1617 6.38019 16.681H6.71553C6.75465 17.0555 6.8832 17.3349 7.10676 17.5193C7.30796 17.6814 7.593 17.7653 7.96187 17.7653C8.31398 17.7653 8.59902 17.6926 8.81699 17.5585C9.02937 17.4187 9.14115 17.2287 9.14115 16.994C9.14115 16.7201 9.00143 16.5077 8.73316 16.3568C8.59902 16.2786 8.30839 16.1724 7.85568 16.0494C7.38062 15.9153 7.07322 15.8091 6.93909 15.7309C6.63169 15.5576 6.48079 15.3061 6.48079 14.9819C6.48079 14.6354 6.62052 14.3727 6.91114 14.1883C7.16824 14.0151 7.50358 13.9312 7.90598 13.9312ZM10.5805 14.0095H10.9214V16.4574C10.9214 16.8822 11.0108 17.2064 11.2009 17.4243C11.4021 17.6535 11.7095 17.7709 12.1342 17.7709C12.559 17.7709 12.8664 17.6535 13.0676 17.4243C13.252 17.2064 13.347 16.8822 13.347 16.4574V14.0095H13.688V16.4574C13.688 16.9772 13.5594 17.374 13.3135 17.6479C13.0508 17.9329 12.6596 18.0782 12.1342 18.0782C11.6089 18.0782 11.2176 17.9329 10.9605 17.6535C10.7035 17.374 10.5805 16.9772 10.5805 16.4574V14.0095ZM16.1953 14.0095H16.5977L18.1961 18H17.8217L17.3578 16.8095H15.4352L14.9713 18H14.5968L16.1953 14.0095ZM15.5469 16.5189H17.246L16.4076 14.3783H16.3909L15.5469 16.5189ZM19.1016 14.0095H19.4425V17.6982H21.8402V18H19.1016V14.0095ZM27.5988 14.0095H29.0184C29.6388 14.0095 30.1082 14.1939 30.4212 14.5684C30.7063 14.9037 30.8516 15.3844 30.8516 16.0047C30.8516 16.6139 30.6895 17.0946 30.3709 17.4467C30.0356 17.8156 29.5605 18 28.9457 18H27.5988V14.0095ZM27.9397 14.3113V17.6982H28.8954C29.4264 17.6982 29.8344 17.5473 30.1138 17.2455C30.3821 16.9549 30.5162 16.5413 30.5162 16.0047C30.5162 15.4458 30.3989 15.0322 30.1641 14.7584C29.907 14.4566 29.5046 14.3113 28.9681 14.3113H27.9397ZM32.0012 14.0095H34.8013V14.3113H32.3422V15.7812H34.6672V16.0886H32.3422V17.6982H34.8963V18H32.0012V14.0095ZM37.3457 13.9312C37.7817 13.9312 38.1282 14.0374 38.3853 14.2498C38.648 14.4622 38.7989 14.7752 38.8324 15.1887H38.4915C38.4468 14.8758 38.3294 14.641 38.1394 14.4789C37.9493 14.3169 37.6811 14.2386 37.3345 14.2386C37.0104 14.2386 36.7589 14.2945 36.5744 14.4063C36.3621 14.5292 36.2615 14.7193 36.2615 14.9708C36.2615 15.1943 36.3844 15.3676 36.6359 15.5017C36.7533 15.5576 37.0104 15.647 37.4016 15.7588C37.9102 15.9041 38.2511 16.0271 38.43 16.1389C38.7597 16.3345 38.9274 16.6139 38.9274 16.9772C38.9274 17.3181 38.7821 17.592 38.4971 17.7932C38.2232 17.9832 37.8599 18.0782 37.4072 18.0782C36.9489 18.0782 36.5856 17.9721 36.3229 17.7653C36.0211 17.5249 35.8535 17.1617 35.8199 16.681H36.1553C36.1944 17.0555 36.3229 17.3349 36.5465 17.5193C36.7477 17.6814 37.0327 17.7653 37.4016 17.7653C37.7537 17.7653 38.0388 17.6926 38.2567 17.5585C38.4691 17.4187 38.5809 17.2287 38.5809 16.994C38.5809 16.7201 38.4412 16.5077 38.1729 16.3568C38.0388 16.2786 37.7481 16.1724 37.2954 16.0494C36.8204 15.9153 36.513 15.8091 36.3788 15.7309C36.0714 15.5576 35.9205 15.3061 35.9205 14.9819C35.9205 14.6354 36.0603 14.3727 36.3509 14.1883C36.608 14.0151 36.9433 13.9312 37.3457 13.9312ZM40.0705 14.0095H40.4115V18H40.0705V14.0095ZM43.4635 13.9312C43.9553 13.9312 44.3465 14.0542 44.6427 14.3057C44.9166 14.5404 45.0898 14.8758 45.1625 15.3005H44.816C44.7545 14.9764 44.6148 14.7193 44.3912 14.5348C44.1565 14.3392 43.8435 14.2442 43.4635 14.2442C42.994 14.2442 42.6251 14.4119 42.3512 14.7472C42.083 15.0714 41.9488 15.4961 41.9488 16.0271C41.9488 16.5469 42.083 16.9604 42.3512 17.2678C42.6363 17.6032 43.0443 17.7709 43.5808 17.7709C43.8156 17.7709 44.0391 17.7373 44.2627 17.6703C44.4751 17.6032 44.6595 17.5249 44.8048 17.4243V16.2898H43.4411V15.988H45.1457V17.5864C44.9613 17.7317 44.7322 17.8547 44.4583 17.9441C44.1677 18.0335 43.8659 18.0782 43.5529 18.0782C42.9269 18.0782 42.4351 17.8715 42.0886 17.469C41.7644 17.0946 41.6079 16.6139 41.6079 16.0271C41.6079 15.4347 41.7644 14.9484 42.083 14.5628C42.4239 14.138 42.8822 13.9312 43.4635 13.9312ZM46.4291 14.0095H46.8148L49.2292 17.469H49.246V14.0095H49.5925V18H49.2124L46.7868 14.5125H46.77V18H46.4291V14.0095Z" fill="white"/>
<path id="VR DESIGN" d="M14.2754 26.0095H14.6555L15.9913 29.6367H16.008L17.3438 26.0095H17.7238L16.2204 30H15.7845L14.2754 26.0095ZM18.6595 26.0095H20.3474C20.7386 26.0095 21.0516 26.0989 21.2752 26.2889C21.4987 26.4789 21.6161 26.7472 21.6161 27.1049C21.6161 27.3396 21.549 27.5408 21.4261 27.7141C21.2919 27.893 21.1019 28.0103 20.8616 28.0662V28.0774C21.264 28.1668 21.4876 28.4127 21.5323 28.8151L21.5882 29.4132C21.6105 29.6591 21.672 29.8547 21.7838 30H21.4093C21.3255 29.8659 21.2752 29.6814 21.2528 29.4579L21.2025 28.9101C21.1802 28.6642 21.0851 28.4854 20.9287 28.3792C20.7833 28.2786 20.5765 28.2283 20.3195 28.2283H19.0005V30H18.6595V26.0095ZM19.0005 26.3113V27.9265H20.3139C20.6268 27.9265 20.8672 27.8482 21.0404 27.6973C21.1969 27.552 21.2752 27.362 21.2752 27.1161C21.2752 26.8478 21.1969 26.6522 21.046 26.5181C20.8895 26.3783 20.6436 26.3113 20.3083 26.3113H19.0005ZM27.5988 26.0095H29.0184C29.6388 26.0095 30.1082 26.1939 30.4212 26.5684C30.7063 26.9037 30.8516 27.3844 30.8516 28.0047C30.8516 28.6139 30.6895 29.0946 30.3709 29.4467C30.0356 29.8156 29.5605 30 28.9457 30H27.5988V26.0095ZM27.9397 26.3113V29.6982H28.8954C29.4264 29.6982 29.8344 29.5473 30.1138 29.2455C30.3821 28.9549 30.5162 28.5413 30.5162 28.0047C30.5162 27.4458 30.3989 27.0322 30.1641 26.7584C29.907 26.4566 29.5046 26.3113 28.9681 26.3113H27.9397ZM32.0013 26.0095H34.8013V26.3113H32.3422V27.7812H34.6672V28.0886H32.3422V29.6982H34.8963V30H32.0013V26.0095ZM37.3457 25.9312C37.7817 25.9312 38.1282 26.0374 38.3853 26.2498C38.648 26.4622 38.7989 26.7752 38.8324 27.1887H38.4915C38.4468 26.8758 38.3294 26.641 38.1394 26.4789C37.9493 26.3169 37.6811 26.2386 37.3345 26.2386C37.0104 26.2386 36.7589 26.2945 36.5744 26.4063C36.3621 26.5292 36.2615 26.7193 36.2615 26.9708C36.2615 27.1943 36.3844 27.3676 36.6359 27.5017C36.7533 27.5576 37.0104 27.647 37.4016 27.7588C37.9102 27.9041 38.2511 28.0271 38.43 28.1389C38.7597 28.3345 38.9274 28.6139 38.9274 28.9772C38.9274 29.3181 38.7821 29.592 38.4971 29.7932C38.2232 29.9832 37.8599 30.0782 37.4072 30.0782C36.9489 30.0782 36.5856 29.9721 36.3229 29.7653C36.0211 29.5249 35.8535 29.1617 35.8199 28.681H36.1553C36.1944 29.0555 36.3229 29.3349 36.5465 29.5193C36.7477 29.6814 37.0327 29.7653 37.4016 29.7653C37.7537 29.7653 38.0388 29.6926 38.2567 29.5585C38.4691 29.4187 38.5809 29.2287 38.5809 28.994C38.5809 28.7201 38.4412 28.5077 38.1729 28.3568C38.0388 28.2786 37.7481 28.1724 37.2954 28.0494C36.8204 27.9153 36.513 27.8091 36.3788 27.7309C36.0714 27.5576 35.9205 27.3061 35.9205 26.9819C35.9205 26.6354 36.0603 26.3727 36.3509 26.1883C36.608 26.0151 36.9433 25.9312 37.3457 25.9312ZM40.0705 26.0095H40.4115V30H40.0705V26.0095ZM43.4635 25.9312C43.9553 25.9312 44.3465 26.0542 44.6427 26.3057C44.9166 26.5404 45.0899 26.8758 45.1625 27.3005H44.816C44.7545 26.9764 44.6148 26.7193 44.3912 26.5348C44.1565 26.3392 43.8435 26.2442 43.4635 26.2442C42.994 26.2442 42.6251 26.4119 42.3512 26.7472C42.083 27.0714 41.9488 27.4961 41.9488 28.0271C41.9488 28.5469 42.083 28.9604 42.3512 29.2678C42.6363 29.6032 43.0443 29.7709 43.5808 29.7709C43.8156 29.7709 44.0391 29.7373 44.2627 29.6703C44.4751 29.6032 44.6595 29.5249 44.8048 29.4243V28.2898H43.4411V27.988H45.1457V29.5864C44.9613 29.7317 44.7322 29.8547 44.4583 29.9441C44.1677 30.0335 43.8659 30.0782 43.5529 30.0782C42.9269 30.0782 42.4351 29.8715 42.0886 29.469C41.7644 29.0946 41.6079 28.6139 41.6079 28.0271C41.6079 27.4347 41.7644 26.9484 42.083 26.5628C42.4239 26.138 42.8822 25.9312 43.4635 25.9312ZM46.4291 26.0095H46.8148L49.2292 29.469H49.246V26.0095H49.5925V30H49.2124L46.7868 26.5125H46.77V30H46.4291V26.0095Z" fill="white"/>
</g>
</g>
</g>
<defs>
<clipPath id="clip0_270_2">
<rect width="609" height="1724" fill="white" transform="translate(410 -535) rotate(90)"/>
</clipPath>
</defs>
</svg>
